<mxfile host="app.diagrams.net" modified="2022-04-13T02:47:24.368Z" agent="5.0 (Macintosh; Intel Mac OS X 10_15_7) AppleWebKit/537.36 (KHTML, like Gecko) Chrome/99.0.4844.83 Safari/537.36" etag="2LBXWCVJGvB4jtQGpoUZ" version="17.1.5" type="github">
  <diagram id="92MI-djlpyPuR14hq45h" name="Page-1">
    <mxGraphModel dx="1410" dy="793" grid="1" gridSize="10" guides="1" tooltips="1" connect="1" arrows="1" fold="1" page="1" pageScale="1" pageWidth="827" pageHeight="1169" math="0" shadow="0">
      <root>
        <mxCell id="0" />
        <mxCell id="1" parent="0" />
        <mxCell id="6uUrFZ_AbM6551ekXs-v-1" value="开始" style="rounded=1;whiteSpace=wrap;html=1;fillColor=#eeeeee;strokeColor=#36393d;" vertex="1" parent="1">
          <mxGeometry x="350" y="70" width="104" height="50" as="geometry" />
        </mxCell>
        <mxCell id="6uUrFZ_AbM6551ekXs-v-3" value="" style="rounded=0;whiteSpace=wrap;html=1;fillColor=#cce5ff;strokeColor=#36393d;" vertex="1" parent="1">
          <mxGeometry x="287" y="170" width="230" height="90" as="geometry" />
        </mxCell>
        <mxCell id="6uUrFZ_AbM6551ekXs-v-4" value="" style="rounded=0;whiteSpace=wrap;html=1;fillColor=#ffcccc;strokeColor=#36393d;" vertex="1" parent="1">
          <mxGeometry x="287" y="310" width="230" height="90" as="geometry" />
        </mxCell>
        <mxCell id="6uUrFZ_AbM6551ekXs-v-5" value="ios" style="rounded=0;whiteSpace=wrap;html=1;fillColor=#ffff88;strokeColor=#36393d;" vertex="1" parent="1">
          <mxGeometry x="300" y="190" width="90" height="50" as="geometry" />
        </mxCell>
        <mxCell id="6uUrFZ_AbM6551ekXs-v-6" value="android" style="rounded=0;whiteSpace=wrap;html=1;fillColor=#cdeb8b;strokeColor=#36393d;" vertex="1" parent="1">
          <mxGeometry x="414" y="190" width="90" height="50" as="geometry" />
        </mxCell>
        <mxCell id="6uUrFZ_AbM6551ekXs-v-7" value="" style="rounded=0;whiteSpace=wrap;html=1;fillColor=#ffcc99;strokeColor=#36393d;" vertex="1" parent="1">
          <mxGeometry x="287" y="440" width="230" height="90" as="geometry" />
        </mxCell>
        <mxCell id="6uUrFZ_AbM6551ekXs-v-8" value="" style="rounded=0;whiteSpace=wrap;html=1;fillColor=#b0e3e6;strokeColor=#0e8088;" vertex="1" parent="1">
          <mxGeometry x="382" y="345" width="40" height="20" as="geometry" />
        </mxCell>
        <mxCell id="6uUrFZ_AbM6551ekXs-v-9" value="" style="rounded=0;whiteSpace=wrap;html=1;fillColor=#e1d5e7;strokeColor=#9673a6;" vertex="1" parent="1">
          <mxGeometry x="325" y="345" width="40" height="20" as="geometry" />
        </mxCell>
        <mxCell id="6uUrFZ_AbM6551ekXs-v-10" value="" style="rounded=0;whiteSpace=wrap;html=1;fillColor=#bac8d3;strokeColor=#23445d;" vertex="1" parent="1">
          <mxGeometry x="439" y="345" width="40" height="20" as="geometry" />
        </mxCell>
        <mxCell id="6uUrFZ_AbM6551ekXs-v-11" value="" style="rounded=0;whiteSpace=wrap;html=1;fillColor=#d5e8d4;gradientColor=#97d077;strokeColor=#82b366;" vertex="1" parent="1">
          <mxGeometry x="430" y="475" width="40" height="20" as="geometry" />
        </mxCell>
        <mxCell id="6uUrFZ_AbM6551ekXs-v-12" value="" style="rounded=0;whiteSpace=wrap;html=1;fillColor=#ffff88;strokeColor=#36393d;" vertex="1" parent="1">
          <mxGeometry x="477" y="475" width="33" height="20" as="geometry" />
        </mxCell>
        <mxCell id="6uUrFZ_AbM6551ekXs-v-14" value="" style="rounded=0;whiteSpace=wrap;html=1;fillColor=#f5f5f5;gradientColor=#b3b3b3;strokeColor=#666666;" vertex="1" parent="1">
          <mxGeometry x="290" y="475" width="30" height="20" as="geometry" />
        </mxCell>
        <mxCell id="6uUrFZ_AbM6551ekXs-v-15" value="" style="rounded=0;whiteSpace=wrap;html=1;fillColor=#e6d0de;gradientColor=#d5739d;strokeColor=#996185;" vertex="1" parent="1">
          <mxGeometry x="330" y="475" width="40" height="20" as="geometry" />
        </mxCell>
        <mxCell id="6uUrFZ_AbM6551ekXs-v-16" value="" style="rounded=0;whiteSpace=wrap;html=1;fillColor=#f8cecc;gradientColor=#ea6b66;strokeColor=#b85450;" vertex="1" parent="1">
          <mxGeometry x="382" y="475" width="40" height="20" as="geometry" />
        </mxCell>
        <mxCell id="6uUrFZ_AbM6551ekXs-v-17" value="" style="rounded=0;whiteSpace=wrap;html=1;" vertex="1" parent="1">
          <mxGeometry x="700" y="410" width="40" height="20" as="geometry" />
        </mxCell>
        <mxCell id="6uUrFZ_AbM6551ekXs-v-23" value="" style="html=1;shadow=0;dashed=0;align=center;verticalAlign=middle;shape=mxgraph.arrows2.arrow;dy=0.6;dx=40;direction=south;notch=0;fillColor=#fff2cc;gradientColor=#ffd966;strokeColor=#d6b656;" vertex="1" parent="1">
          <mxGeometry x="392" y="120" width="20" height="60" as="geometry" />
        </mxCell>
        <mxCell id="6uUrFZ_AbM6551ekXs-v-25" value="" style="endArrow=classic;html=1;rounded=0;exitX=0.5;exitY=1;exitDx=0;exitDy=0;entryX=0.5;entryY=0;entryDx=0;entryDy=0;" edge="1" parent="1" source="6uUrFZ_AbM6551ekXs-v-5" target="6uUrFZ_AbM6551ekXs-v-9">
          <mxGeometry width="50" height="50" relative="1" as="geometry">
            <mxPoint x="260" y="480" as="sourcePoint" />
            <mxPoint x="310" y="430" as="targetPoint" />
          </mxGeometry>
        </mxCell>
        <mxCell id="6uUrFZ_AbM6551ekXs-v-26" value="" style="endArrow=classic;html=1;rounded=0;entryX=0.5;entryY=0;entryDx=0;entryDy=0;exitX=0.5;exitY=1;exitDx=0;exitDy=0;" edge="1" parent="1" source="6uUrFZ_AbM6551ekXs-v-5" target="6uUrFZ_AbM6551ekXs-v-8">
          <mxGeometry width="50" height="50" relative="1" as="geometry">
            <mxPoint x="110" y="370" as="sourcePoint" />
            <mxPoint x="160" y="320" as="targetPoint" />
          </mxGeometry>
        </mxCell>
        <mxCell id="6uUrFZ_AbM6551ekXs-v-27" value="" style="endArrow=classic;html=1;rounded=0;entryX=0.5;entryY=0;entryDx=0;entryDy=0;" edge="1" parent="1" target="6uUrFZ_AbM6551ekXs-v-10">
          <mxGeometry width="50" height="50" relative="1" as="geometry">
            <mxPoint x="350" y="240" as="sourcePoint" />
            <mxPoint x="180" y="290" as="targetPoint" />
          </mxGeometry>
        </mxCell>
        <mxCell id="6uUrFZ_AbM6551ekXs-v-28" value="" style="endArrow=classic;html=1;rounded=0;entryX=0.5;entryY=0;entryDx=0;entryDy=0;exitX=0.5;exitY=1;exitDx=0;exitDy=0;" edge="1" parent="1" source="6uUrFZ_AbM6551ekXs-v-6" target="6uUrFZ_AbM6551ekXs-v-9">
          <mxGeometry width="50" height="50" relative="1" as="geometry">
            <mxPoint x="130" y="280" as="sourcePoint" />
            <mxPoint x="180" y="230" as="targetPoint" />
          </mxGeometry>
        </mxCell>
        <mxCell id="6uUrFZ_AbM6551ekXs-v-29" value="" style="endArrow=classic;html=1;rounded=0;entryX=0.5;entryY=0;entryDx=0;entryDy=0;exitX=0.5;exitY=1;exitDx=0;exitDy=0;" edge="1" parent="1" source="6uUrFZ_AbM6551ekXs-v-6" target="6uUrFZ_AbM6551ekXs-v-8">
          <mxGeometry width="50" height="50" relative="1" as="geometry">
            <mxPoint x="200" y="260" as="sourcePoint" />
            <mxPoint x="250" y="210" as="targetPoint" />
          </mxGeometry>
        </mxCell>
        <mxCell id="6uUrFZ_AbM6551ekXs-v-30" value="" style="endArrow=classic;html=1;rounded=0;entryX=0.5;entryY=0;entryDx=0;entryDy=0;" edge="1" parent="1" target="6uUrFZ_AbM6551ekXs-v-10">
          <mxGeometry width="50" height="50" relative="1" as="geometry">
            <mxPoint x="459" y="240" as="sourcePoint" />
            <mxPoint x="180" y="210" as="targetPoint" />
          </mxGeometry>
        </mxCell>
        <mxCell id="6uUrFZ_AbM6551ekXs-v-31" value="" style="endArrow=classic;html=1;rounded=0;entryX=0.5;entryY=0;entryDx=0;entryDy=0;exitX=0.5;exitY=1;exitDx=0;exitDy=0;" edge="1" parent="1" source="6uUrFZ_AbM6551ekXs-v-9" target="6uUrFZ_AbM6551ekXs-v-14">
          <mxGeometry width="50" height="50" relative="1" as="geometry">
            <mxPoint x="150" y="410" as="sourcePoint" />
            <mxPoint x="200" y="360" as="targetPoint" />
          </mxGeometry>
        </mxCell>
        <mxCell id="6uUrFZ_AbM6551ekXs-v-32" value="" style="endArrow=classic;html=1;rounded=0;entryX=0.5;entryY=0;entryDx=0;entryDy=0;exitX=0.5;exitY=1;exitDx=0;exitDy=0;" edge="1" parent="1" source="6uUrFZ_AbM6551ekXs-v-9" target="6uUrFZ_AbM6551ekXs-v-16">
          <mxGeometry width="50" height="50" relative="1" as="geometry">
            <mxPoint x="160" y="250" as="sourcePoint" />
            <mxPoint x="210" y="200" as="targetPoint" />
          </mxGeometry>
        </mxCell>
        <mxCell id="6uUrFZ_AbM6551ekXs-v-33" value="" style="endArrow=classic;html=1;rounded=0;entryX=0.5;entryY=0;entryDx=0;entryDy=0;exitX=0.5;exitY=1;exitDx=0;exitDy=0;" edge="1" parent="1" source="6uUrFZ_AbM6551ekXs-v-9" target="6uUrFZ_AbM6551ekXs-v-15">
          <mxGeometry width="50" height="50" relative="1" as="geometry">
            <mxPoint x="350" y="370" as="sourcePoint" />
            <mxPoint x="130" y="280" as="targetPoint" />
            <Array as="points" />
          </mxGeometry>
        </mxCell>
        <mxCell id="6uUrFZ_AbM6551ekXs-v-34" value="" style="endArrow=classic;html=1;rounded=0;entryX=0.5;entryY=0;entryDx=0;entryDy=0;exitX=0.5;exitY=1;exitDx=0;exitDy=0;" edge="1" parent="1" source="6uUrFZ_AbM6551ekXs-v-9" target="6uUrFZ_AbM6551ekXs-v-11">
          <mxGeometry width="50" height="50" relative="1" as="geometry">
            <mxPoint x="350" y="370" as="sourcePoint" />
            <mxPoint x="110" y="190" as="targetPoint" />
          </mxGeometry>
        </mxCell>
        <mxCell id="6uUrFZ_AbM6551ekXs-v-35" value="" style="endArrow=classic;html=1;rounded=0;entryX=0.5;entryY=0;entryDx=0;entryDy=0;exitX=0.5;exitY=1;exitDx=0;exitDy=0;" edge="1" parent="1" source="6uUrFZ_AbM6551ekXs-v-9" target="6uUrFZ_AbM6551ekXs-v-12">
          <mxGeometry width="50" height="50" relative="1" as="geometry">
            <mxPoint x="350" y="370" as="sourcePoint" />
            <mxPoint x="640" y="280" as="targetPoint" />
          </mxGeometry>
        </mxCell>
        <mxCell id="6uUrFZ_AbM6551ekXs-v-37" value="" style="endArrow=classic;html=1;rounded=0;entryX=0.5;entryY=0;entryDx=0;entryDy=0;exitX=0.5;exitY=1;exitDx=0;exitDy=0;" edge="1" parent="1" source="6uUrFZ_AbM6551ekXs-v-8" target="6uUrFZ_AbM6551ekXs-v-14">
          <mxGeometry width="50" height="50" relative="1" as="geometry">
            <mxPoint x="150" y="340" as="sourcePoint" />
            <mxPoint x="200" y="290" as="targetPoint" />
          </mxGeometry>
        </mxCell>
        <mxCell id="6uUrFZ_AbM6551ekXs-v-38" value="" style="endArrow=classic;html=1;rounded=0;entryX=0.5;entryY=0;entryDx=0;entryDy=0;exitX=0.5;exitY=1;exitDx=0;exitDy=0;" edge="1" parent="1" source="6uUrFZ_AbM6551ekXs-v-8" target="6uUrFZ_AbM6551ekXs-v-15">
          <mxGeometry width="50" height="50" relative="1" as="geometry">
            <mxPoint x="190" y="250" as="sourcePoint" />
            <mxPoint x="240" y="200" as="targetPoint" />
          </mxGeometry>
        </mxCell>
        <mxCell id="6uUrFZ_AbM6551ekXs-v-39" value="" style="endArrow=classic;html=1;rounded=0;entryX=0.5;entryY=0;entryDx=0;entryDy=0;exitX=0.5;exitY=1;exitDx=0;exitDy=0;" edge="1" parent="1" source="6uUrFZ_AbM6551ekXs-v-8" target="6uUrFZ_AbM6551ekXs-v-16">
          <mxGeometry width="50" height="50" relative="1" as="geometry">
            <mxPoint x="130" y="240" as="sourcePoint" />
            <mxPoint x="180" y="190" as="targetPoint" />
          </mxGeometry>
        </mxCell>
        <mxCell id="6uUrFZ_AbM6551ekXs-v-40" value="" style="endArrow=classic;html=1;rounded=0;exitX=0.5;exitY=1;exitDx=0;exitDy=0;" edge="1" parent="1" source="6uUrFZ_AbM6551ekXs-v-8">
          <mxGeometry width="50" height="50" relative="1" as="geometry">
            <mxPoint x="80" y="230" as="sourcePoint" />
            <mxPoint x="450" y="470" as="targetPoint" />
          </mxGeometry>
        </mxCell>
        <mxCell id="6uUrFZ_AbM6551ekXs-v-41" value="" style="endArrow=classic;html=1;rounded=0;entryX=0.5;entryY=0;entryDx=0;entryDy=0;exitX=0.5;exitY=1;exitDx=0;exitDy=0;" edge="1" parent="1" source="6uUrFZ_AbM6551ekXs-v-8" target="6uUrFZ_AbM6551ekXs-v-12">
          <mxGeometry width="50" height="50" relative="1" as="geometry">
            <mxPoint x="400" y="370" as="sourcePoint" />
            <mxPoint x="70" y="170" as="targetPoint" />
          </mxGeometry>
        </mxCell>
        <mxCell id="6uUrFZ_AbM6551ekXs-v-42" value="设备类型" style="text;html=1;align=center;verticalAlign=middle;resizable=0;points=[];autosize=1;strokeColor=none;fillColor=none;" vertex="1" parent="1">
          <mxGeometry x="230" y="210" width="60" height="20" as="geometry" />
        </mxCell>
        <mxCell id="6uUrFZ_AbM6551ekXs-v-43" value="游戏分类" style="text;html=1;align=center;verticalAlign=middle;resizable=0;points=[];autosize=1;strokeColor=none;fillColor=none;" vertex="1" parent="1">
          <mxGeometry x="230" y="350" width="60" height="20" as="geometry" />
        </mxCell>
        <mxCell id="6uUrFZ_AbM6551ekXs-v-44" value="不同国家" style="text;html=1;align=center;verticalAlign=middle;resizable=0;points=[];autosize=1;strokeColor=none;fillColor=none;" vertex="1" parent="1">
          <mxGeometry x="230" y="470" width="60" height="20" as="geometry" />
        </mxCell>
        <mxCell id="6uUrFZ_AbM6551ekXs-v-45" value="" style="endArrow=classic;html=1;rounded=0;entryX=0.5;entryY=0;entryDx=0;entryDy=0;exitX=0.5;exitY=1;exitDx=0;exitDy=0;" edge="1" parent="1" source="6uUrFZ_AbM6551ekXs-v-10" target="6uUrFZ_AbM6551ekXs-v-15">
          <mxGeometry width="50" height="50" relative="1" as="geometry">
            <mxPoint x="70" y="340" as="sourcePoint" />
            <mxPoint x="120" y="290" as="targetPoint" />
          </mxGeometry>
        </mxCell>
        <mxCell id="6uUrFZ_AbM6551ekXs-v-46" value="" style="endArrow=classic;html=1;rounded=0;entryX=0.5;entryY=0;entryDx=0;entryDy=0;exitX=0.5;exitY=1;exitDx=0;exitDy=0;" edge="1" parent="1" source="6uUrFZ_AbM6551ekXs-v-10" target="6uUrFZ_AbM6551ekXs-v-16">
          <mxGeometry width="50" height="50" relative="1" as="geometry">
            <mxPoint x="100" y="240" as="sourcePoint" />
            <mxPoint x="150" y="190" as="targetPoint" />
          </mxGeometry>
        </mxCell>
        <mxCell id="6uUrFZ_AbM6551ekXs-v-47" value="" style="endArrow=classic;html=1;rounded=0;entryX=0.5;entryY=0;entryDx=0;entryDy=0;exitX=0.5;exitY=1;exitDx=0;exitDy=0;" edge="1" parent="1" source="6uUrFZ_AbM6551ekXs-v-10" target="6uUrFZ_AbM6551ekXs-v-11">
          <mxGeometry width="50" height="50" relative="1" as="geometry">
            <mxPoint x="60" y="190" as="sourcePoint" />
            <mxPoint x="110" y="140" as="targetPoint" />
          </mxGeometry>
        </mxCell>
        <mxCell id="6uUrFZ_AbM6551ekXs-v-49" value="" style="endArrow=classic;html=1;rounded=0;entryX=0.5;entryY=0;entryDx=0;entryDy=0;exitX=0.5;exitY=1;exitDx=0;exitDy=0;" edge="1" parent="1" source="6uUrFZ_AbM6551ekXs-v-10" target="6uUrFZ_AbM6551ekXs-v-12">
          <mxGeometry width="50" height="50" relative="1" as="geometry">
            <mxPoint x="20" y="140" as="sourcePoint" />
            <mxPoint x="70" y="90" as="targetPoint" />
          </mxGeometry>
        </mxCell>
        <mxCell id="6uUrFZ_AbM6551ekXs-v-50" value="" style="endArrow=classic;html=1;rounded=0;entryX=0.5;entryY=0;entryDx=0;entryDy=0;exitX=0.5;exitY=1;exitDx=0;exitDy=0;" edge="1" parent="1" source="6uUrFZ_AbM6551ekXs-v-10" target="6uUrFZ_AbM6551ekXs-v-14">
          <mxGeometry width="50" height="50" relative="1" as="geometry">
            <mxPoint x="100" y="460" as="sourcePoint" />
            <mxPoint x="150" y="410" as="targetPoint" />
          </mxGeometry>
        </mxCell>
      </root>
    </mxGraphModel>
  </diagram>
</mxfile>
